<?xml version="1.0" encoding="UTF-8"?>
<svg xmlns="http://www.w3.org/2000/svg" viewBox="0 0 512 512" role="img" aria-label="Neon line art cat sitting with tail wrapped forward">
  <defs>
    <linearGradient id="catStroke" x1="86" y1="60" x2="426" y2="452" gradientUnits="userSpaceOnUse">
      <stop offset="0" stop-color="#ff43ff"/>
      <stop offset="0.48" stop-color="#7a5cff"/>
      <stop offset="1" stop-color="#00f0ff"/>
    </linearGradient>
    <linearGradient id="catGlow" x1="78" y1="44" x2="434" y2="468" gradientUnits="userSpaceOnUse">
      <stop offset="0" stop-color="rgba(255,67,255,0.55)"/>
      <stop offset="1" stop-color="rgba(0,240,255,0.45)"/>
    </linearGradient>
    <filter id="outerGlow" x="-30%" y="-30%" width="160%" height="160%">
      <feGaussianBlur stdDeviation="14" result="blur"/>
      <feMerge>
        <feMergeNode in="blur"/>
        <feMergeNode in="SourceGraphic"/>
      </feMerge>
    </filter>
  </defs>
  <g fill="none" stroke-linecap="round" stroke-linejoin="round" filter="url(#outerGlow)">
    <path stroke="url(#catGlow)" stroke-width="18" d="M168 116c8.6-28 42.5-54 71-38 12 6.6 17.3 20.9 25.7 43.1 12.1-20.7 34.5-33.5 60-27.4 33.5 7.9 51.1 43.3 39.3 76-4.5 12.5-12.9 23.3-23.6 31.3 39.8 41.2 51.4 141.9-42.9 207.7 7.8 41.4-12 82.7-54.5 69.3-17.5-5.5-29.5-24-26.5-49.5-24.4-6.5-49.7-23.6-68.9-52.7-25-37.9-27.1-84.2-9.5-122.9-17.6-10.2-32.8-27.7-32.8-51.4 0-33.6 30.4-59.2 61.7-38.2z"/>
    <path stroke="url(#catStroke)" stroke-width="10" d="M180 128c6-20 34.8-42.2 55.8-30.8 13.2 7.4 20.4 27.5 28.2 51.8 17.6-33.9 56.8-42.3 80.8-13.2 22.6 27.5 12.2 65.7-16 84.6 49.6 44.2 55.9 135.2-46.4 195.8 10.4 43.8-20.4 68.8-45.6 55.6-21-11.1-21.2-36.4-18.2-55.2-34.2-3.6-66.8-33-84.6-67.8-20.6-39.9-17.2-84.8 3.6-116.4-25.8-9.2-45-30.4-45-55.8 0-38 41.6-63.2 66-26.4zM357.5 165.8l27.5-12.6M171.4 140.4l-24-19.8M334.8 430c22.4 9.6 47.8 9.6 66.4-16.8"/>
    <path stroke="url(#catStroke)" stroke-width="7" d="M244 228c24 20 36 50 26 76M198 214c-20 20-28 48-18 70"/>
    <path stroke="url(#catStroke)" stroke-width="8" d="M268 318c12 10 16 30 8 42"/>
  </g>
</svg>
